<svg width="220" height="220" viewBox="0 0 220 220" fill="none" xmlns="http://www.w3.org/2000/svg" role="img" aria-labelledby="title desc">
  <title id="title">AdNova logo</title>
  <desc id="desc">Premium gradient A mark with central sparkle.</desc>
  <defs>
    <linearGradient id="adnovaA" x1="44" y1="174" x2="178" y2="28" gradientUnits="userSpaceOnUse">
      <stop stop-color="#7E9CFF"/>
      <stop offset="0.36" stop-color="#24304D"/>
      <stop offset="0.72" stop-color="#111B34"/>
      <stop offset="1" stop-color="#6B7FAE"/>
    </linearGradient>
    <radialGradient id="shine" cx="0" cy="0" r="1" gradientUnits="userSpaceOnUse" gradientTransform="translate(76 164) rotate(-34) scale(64 28)">
      <stop stop-color="#ECF2FF" stop-opacity=".92"/>
      <stop offset="1" stop-color="#ECF2FF" stop-opacity="0"/>
    </radialGradient>
    <filter id="softShadow" x="20" y="20" width="180" height="180" filterUnits="userSpaceOnUse" color-interpolation-filters="sRGB">
      <feDropShadow dx="0" dy="16" stdDeviation="16" flood-color="#1C2440" flood-opacity=".16"/>
    </filter>
  </defs>
  <rect width="220" height="220" rx="48" fill="white"/>
  <g filter="url(#softShadow)">
    <path d="M58.26 165.36C51.46 165.36 47.05 158.17 50.15 152.12L94.15 66.26C101.12 52.66 120.62 52.7 127.55 66.33L170.97 151.77C174.08 157.88 169.65 165.12 162.79 165.12H139.38C133.98 165.12 128.98 162.29 126.2 157.66L103.12 119.19C99.05 112.41 88.86 115.32 88.86 123.23V149.61C88.86 158.31 81.81 165.36 73.11 165.36H58.26Z" fill="url(#adnovaA)"/>
    <path d="M58.26 165.36C51.46 165.36 47.05 158.17 50.15 152.12L94.15 66.26C101.12 52.66 120.62 52.7 127.55 66.33L170.97 151.77C174.08 157.88 169.65 165.12 162.79 165.12H139.38C133.98 165.12 128.98 162.29 126.2 157.66L103.12 119.19C99.05 112.41 88.86 115.32 88.86 123.23V149.61C88.86 158.31 81.81 165.36 73.11 165.36H58.26Z" fill="url(#shine)"/>
    <path d="M118 99C121.14 111.18 128.82 118.86 141 122C128.82 125.14 121.14 132.82 118 145C114.86 132.82 107.18 125.14 95 122C107.18 118.86 114.86 111.18 118 99Z" fill="#111B34"/>
    <path d="M118 104.5C120.38 113.72 126.28 119.62 135.5 122C126.28 124.38 120.38 130.28 118 139.5C115.62 130.28 109.72 124.38 100.5 122C109.72 119.62 115.62 113.72 118 104.5Z" fill="white" fill-opacity=".15"/>
  </g>
</svg>
